<svg xmlns="http://www.w3.org/2000/svg" viewBox="0 0 1515.7 420">
<style>.st0{display:none;fill:none;stroke:#fff;stroke-miterlimit:10}.st1{fill:url(#a)}.st2{fill:#EC1E64}.st3{fill:#fff}
</style>
<path d="M-1488.8 875h-14l.4 119.6h-54.8l-.6 43h82.8c-10 5.3-19.7 11.4-27.3 16.3v27h17" class="st0"/>
<linearGradient id="a" x1="61.5" x2="358.5" y1="359.3" y2="62.3" gradientTransform="matrix(1 0 0 -1 0 420.8)" gradientUnits="userSpaceOnUse">
<stop stop-color="#fff" offset="0"/><stop stop-color="#fff" offset="1"/>
</linearGradient>
<circle cx="210" cy="210" r="210" class="st1"/>
<path d="M305.3 202.5c-2.2-1.3-4.5-2.5-6.8-3.5h-.3l1.6-1.5c3-2.4 6-5 8.5-8 11.8-13.6 15.2-28.8 10.2-45.3-4-13.6-13.2-23.7-27.6-31-11-5.5-23.4-8-38.3-8H131l.4 119.5H76.6v47h80l-25 15.2v28h123.6c8 0 16.5-1 25-2.3 28.6-5 51-32.2 51-62 0-21.7-8.7-38-26-48.2zm-42.8-18.8c-2.5 1.7-5.7 2.6-9 3.4-2.4.7-5 .7-7.3.7h-67v-41H252c8.7.2 16 6 18.6 14.6 2.4 8.2-1 17.4-8 22.4zm-65 90h-18.3v-48h74.5c10.7 0 18.3 3.5 23.7 11 4.4 6 5.5 14 3 21.3-2.6 7-8 12.2-15 14-4.3 1-8.4 1.7-12 1.8h-56z" class="st2"/>
<path d="M703.3 193.4c3.2 1.5 6.5 3 9.6 4.8 17 10 25 25.4 25 45 0 28-21.6 53.5-49.5 58-8 1.4-16.4 2.2-24.6 2.2-39.6.2-79 0-118.7 0H542V104.2h119.2c13 0 25.6 1.8 37.3 7.6 12.6 6.2 22.3 15.2 26.6 29 5 15.7 1.2 30-9.7 42-3.3 4-7.8 7.2-12 10.8zm-117.3 74h2.8c24.4 0 49 .2 73.3 0 4.3 0 8.7-.7 12.8-1.8 16.2-4 23-24 13-37.3-6.5-8.4-15.3-11.3-25.4-11.3h-73.6c-2.6 0-3 .8-3 3v44.2l.2 3.2zm0-83.4h69c2.6 0 5.3 0 7.8-.6 3.3-.8 6.8-1.7 9.6-3.6 8-5.4 11.5-15.2 9-23.8-2.7-9-10.7-15.4-20.6-15.5-24.2-.3-48.5 0-72.7-.2-1.6 0-2.2.6-2.2 2.3V184zm382.5 119.5V104h118c13.4 0 26.5 1.7 38.5 7.7 15.6 7.7 26.4 19.4 28.4 37.3 1.5 13-3 24.4-11.7 34-3.6 3.8-8 6.8-12.2 10.4l5.5 2.5c11.4 5.3 20.2 13.4 25 25.2 10.8 26.2 1 54-21.2 70-10 7.2-21.3 10.5-33.3 11.5-6.7.6-13.5.7-20.2.7H968.5zm44-36.2l2.5.2h74c5.6 0 11.2-1 16.5-3.4 15-7 17.8-28.7 5-39.5-6.4-5.5-13.8-7.4-22-7.4h-73l-3 .3v50zm-.3-83.4h69.6c2.8 0 5.6-.2 8.4-.7 15.3-3 23-19.4 15.2-32.3-4.2-7-10.6-10.3-18.5-10.4-24.2-.2-48.4 0-72.5-.2-2 0-2.3 1-2.3 2.6V184zm183.3-19c8.2-3 16-6 23.8-8.5 18.5-5.7 37.5-8 56.8-6.6 12 .7 23.8 3 34.7 8.6 15.4 7.8 23.5 20 23.4 37.4v72.5c0 11.2.6 22.3 4 33 0 .4 0 1 .2 1.7l-2.4.2h-35c-2.2 0-3-.7-3.3-2.5l-3-14.3-9 7.5c-12.3 9.6-26.6 13-42 13-13-.3-25.2-3-36.3-10-23.4-15-28.7-48-12-68.5 7.3-9 17-14.8 28-18 18-5 35.8-5.4 53.5 0 5 1.7 9.8 4.7 14.6 7l2 1c0-5 .2-10 0-15-.3-13.6-10-19-20-21-15-2.8-29.4 0-43.5 4.5-7.2 2.2-14.2 5-21.7 8l-12.5-30.3zm62.4 70.6c-2.8.2-6 .2-9.3.7-3.3.6-6.6 1.3-9.7 2.5-11.2 4.3-16 15.4-11 25.7 4 8.4 11.5 11.4 20 12.2 16.6 1.6 31-3.8 43.5-14.3 1-1 1.8-2.7 2-4.2.3-2.7 0-5.4.2-8 .4-3.3-1-5-3.7-6.6-9.8-5.7-20.4-7.8-32-8zm257.7-81.2l-11.3 24c-19 40.5-38.3 81-57.5 121.4l-31 65c-.4 1-1.4 1.8-2 1.8h-41l1.3-3 36-71.5c1-1.7 1-3 0-4.8l-47-105.4c-4-8.4-7.7-17-11.4-25.3-.3-.5-.4-1-.6-2h3c13 0 26.3 0 39.5-.2 2 0 2.8.7 3.6 2.5l27 66.8 7.3 17.6c.2.7 1 1.3 1.6 2 .6-.7 1.4-1.3 1.7-2l36.6-82.5c1.8-4.4 1.8-4.4 6.6-4.4h37.1zm-678.4 28v-30H863v-42h40.5v42h34c2.2 0 3 .5 3 2.8-.2 9 0 18 0 27.3H937c-10.2 0-20.4.2-30.6 0-2.4 0-3 .8-3 3V259c0 8.7 4.3 13.4 13.2 13.7 6.2.2 12.5-.7 18.7-1.3 3.4-.3 3.4-.4 3.7 3 .8 8 1.4 16 2.5 24.2.3 2.4-.4 3.7-2.4 4.2-4.2 1.2-8.4 2.5-12.8 3-10 1.5-20.3 2-30.4 0-19.7-4.4-32.3-19-32.6-39-.4-26.8-.2-53.5-.3-80.2 0-4 0-4-4-4h-21.7zm-26.7 121H808c-11.7 0-23.3 0-35 .2-2.2 0-3-.6-3-3 .2-47.8.2-95.5 0-143.3 0-2.2.7-3 3-3 11.7.2 23.4.2 35 0 2.2 0 2.8.8 2.8 2.8v144.2c0 .6 0 1.2-.2 2zM789.2 86.7c10.5.6 18 4 22.7 12.3 5.2 9.4 3 20-5.7 26.6-9.7 7.4-24 7-33-1-5.7-5-8-11.8-6.6-19.4 1.7-8 6.8-13.7 14.5-16.5 3-1.2 6-1.5 8-2z" class="st3"/></svg>